<?xml version="1.0" encoding="UTF-8"?>
<svg xmlns="http://www.w3.org/2000/svg" style="stroke-dasharray:none; shape-rendering:auto; font-family:'Arial'; text-rendering:auto; fill-opacity:1; color-interpolation:auto; color-rendering:auto; font-size:12; fill:black; stroke:black; image-rendering:auto; stroke-miterlimit:10; stroke-linecap:square; stroke-linejoin:miter; font-style:normal; stroke-width:1; stroke-dashoffset:0; font-weight:normal; stroke-opacity:1;" contentScriptType="text/ecmascript" preserveAspectRatio="xMidYMid meet" zoomAndPan="magnify" version="1.0" contentStyleType="text/css" xml:xlink="http://www.w3.org/1999/xlink" width="1200" height="741"><rect x="80" y="109" width="1120" height="632" ry="0" rx="0" style="stroke:#000000; fill:#FFFFFF" /><rect x="110" y="583" width="1090" height="158" ry="0" rx="0" style="stroke:#000000; fill:#82B0B7" /><g componentSequence="26"><text x="-662" y="116" transform="rotate(270)" text-anchor="middle" style="font-weight:bold;font-size:10px;stroke:none; fill:#434343"><tspan dy="14" x="-662">Melhoria Ajustes</tspan></text></g><rect x="110" y="425" width="1090" height="158" ry="0" rx="0" style="stroke:#000000; fill:#F9F3B9" /><g componentSequence="5"><text x="-504" y="116" transform="rotate(270)" text-anchor="middle" style="font-weight:bold;font-size:10px;stroke:none; fill:#434343"><tspan dy="14" x="-504">Implementação</tspan></text></g><rect x="110" y="267" width="1090" height="158" ry="0" rx="0" style="stroke:#000000; fill:#FFFFFF" /><g componentSequence="3"><text x="-346" y="116" transform="rotate(270)" text-anchor="middle" style="font-weight:bold;font-size:10px;stroke:none; fill:#434343"><tspan dy="14" x="-346">Triagem</tspan></text></g><rect x="110" y="109" width="1090" height="158" ry="0" rx="0" style="stroke:#000000; fill:#ECBFBF" /><g componentSequence="2"><text x="-188" y="116" transform="rotate(270)" text-anchor="middle" style="font-weight:bold;font-size:10px;stroke:none; fill:#434343"><tspan dy="14" x="-188">Solicitação</tspan></text></g><g componentSequence="1"><text x="-425" y="86" transform="rotate(270)" text-anchor="middle" style="font-weight:bold;font-size:10px;stroke:none; fill:#434343"><tspan dy="14" x="-425">Processo de versionamento</tspan></text></g><g sequence="7"><rect x="350" y="160" width="106" height="67" ry="5" rx="5" style="fill:url(#linearGradientF8FBFEEDF5FCDEEDFAD4E7F8E2E5E9_1843171814);" stroke="191970" /></g><g componentSequence="7"><text x="403" y="175" text-anchor="middle" style="font-weight:bold;font-size:10px;stroke:none; fill:#333399"><tspan dy="14" x="403">Validação e</tspan><tspan dy="14" x="403">triagem</tspan></text></g><g sequence="8"><polygon points=" 510 180 540 150 570 180 540 210 510 180" style="fill:url(#linearGradientFAFBFCFFFFCC_1662738989);" stroke="000000" /></g><g componentSequence="8"><text x="540" y="220" text-anchor="middle" style="font-weight:bold;font-size:10px;stroke:none; fill:#333399"><tspan dy="14" x="540">Verificac</tspan><tspan dy="14" x="540">ao</tspan></text></g><g sequence="9"><ellipse cx="167" cy="198" rx="17" ry="17" stroke-width="1" style="fill:url(#linearGradient66FF6696FF96B6FFB6_1730476694);" stroke="336633" /></g><g sequence="11"><rect x="730" y="122" width="106" height="67" ry="5" rx="5" style="fill:url(#linearGradientF8FBFEEDF5FCDEEDFAD4E7F8E2E5E9_572942358);" stroke="191970" /></g><g componentSequence="11"><text x="783" y="137" text-anchor="middle" style="font-weight:bold;font-size:10px;stroke:none; fill:#333399"><tspan dy="14" x="783">duplicada ou</tspan><tspan dy="14" x="783">invalidada</tspan></text></g><g sequence="12"><rect x="730" y="210" width="106" height="67" ry="5" rx="5" style="fill:url(#linearGradientF8FBFEEDF5FCDEEDFAD4E7F8E2E5E9_737971733);" stroke="191970" /></g><g componentSequence="12"><text x="783" y="232" text-anchor="middle" style="font-weight:bold;font-size:10px;stroke:none; fill:#333399"><tspan dy="14" x="783">complementacao</tspan></text></g><g sequence="13"><rect x="200" y="159" width="106" height="80" ry="5" rx="5" style="fill:url(#linearGradientF8FBFEEDF5FCDEEDFAD4E7F8E2E5E9_332303181);" stroke="191970" /></g><g componentSequence="13"><text x="253" y="174" text-anchor="middle" style="font-weight:bold;font-size:10px;stroke:none; fill:#333399"><tspan dy="14" x="253">Nova solicitação</tspan><tspan dy="14" x="253">de</tspan><tspan dy="14" x="253">Versionamento</tspan></text></g><g sequence="28"><ellipse cx="977" cy="167" rx="17" ry="17" stroke-width="1" style="fill:url(#linearGradientFFFF66FFFF96FFFFB6_1409168360);" stroke="999900" /></g><g sequence="28"><polygon points=" 963 160 978 160 978 153 993 168 978 183 978 176 963 176" style="stroke:none; fill:#999900" /></g><g sequence="30"><ellipse cx="217" cy="357" rx="17" ry="17" stroke-width="1" style="fill:url(#linearGradientFFFF66FFFF96FFFFB6_1107924825);" stroke="999900" /></g><g sequence="30"><polygon points=" 203 350 218 350 218 343 233 358 218 373 218 366 203 366" style="stroke:#999900; fill:none" /></g><g sequence="31"><rect x="290" y="320" width="106" height="80" ry="5" rx="5" style="fill:url(#linearGradientF8FBFEEDF5FCDEEDFAD4E7F8E2E5E9_222967083);" stroke="191970" /></g><g componentSequence="31"><text x="343" y="335" text-anchor="middle" style="font-weight:bold;font-size:10px;stroke:none; fill:#333399"><tspan dy="14" x="343">Correção das</tspan><tspan dy="14" x="343">atividades do</tspan><tspan dy="14" x="343">formulário</tspan></text></g><g sequence="34"><ellipse cx="967" cy="237" rx="17" ry="17" stroke-width="1" style="fill:url(#linearGradientFFFF66FFFF96FFFFB6_1790530348);" stroke="999900" /></g><g sequence="34"><polygon points=" 953 230 968 230 968 223 983 238 968 253 968 246 953 246" style="stroke:none; fill:#999900" /></g><g sequence="36"><ellipse cx="227" cy="505" rx="17" ry="17" stroke-width="1" style="fill:url(#linearGradientFFFF66FFFF96FFFFB6_1224367328);" stroke="999900" /></g><g sequence="36"><polygon points=" 213 498 228 498 228 491 243 506 228 521 228 514 213 514" style="stroke:#999900; fill:none" /></g><g sequence="37"><rect x="290" y="490" width="106" height="54" ry="5" rx="5" style="fill:url(#linearGradientF8FBFEEDF5FCDEEDFAD4E7F8E2E5E9_1179101689);" stroke="191970" /></g><g componentSequence="37"><text x="343" y="506" text-anchor="middle" style="font-weight:bold;font-size:10px;stroke:none; fill:#333399"><tspan dy="14" x="343">aprovacao</tspan></text></g><g sequence="39"><rect x="440" y="650" width="106" height="67" ry="5" rx="5" style="fill:url(#linearGradientF8FBFEEDF5FCDEEDFAD4E7F8E2E5E9_444088183);" stroke="191970" /></g><g componentSequence="39"><text x="493" y="665" text-anchor="middle" style="font-weight:bold;font-size:10px;stroke:none; fill:#333399"><tspan dy="14" x="493">Aprovacao com</tspan><tspan dy="14" x="493">ajustes</tspan></text></g><g sequence="41"><rect x="440" y="430" width="106" height="54" ry="5" rx="5" style="fill:url(#linearGradientF8FBFEEDF5FCDEEDFAD4E7F8E2E5E9_980954919);" stroke="191970" /></g><g componentSequence="41"><text x="493" y="446" text-anchor="middle" style="font-weight:bold;font-size:10px;stroke:none; fill:#333399"><tspan dy="14" x="493">backlog</tspan></text></g><g sequence="43"><rect x="440" y="510" width="106" height="54" ry="5" rx="5" style="fill:url(#linearGradientF8FBFEEDF5FCDEEDFAD4E7F8E2E5E9_545221076);" stroke="191970" /></g><g componentSequence="43"><text x="493" y="526" text-anchor="middle" style="font-weight:bold;font-size:10px;stroke:none; fill:#333399"><tspan dy="14" x="493">Aprovar</tspan></text></g><g sequence="45"><rect x="440" y="580" width="106" height="54" ry="5" rx="5" style="fill:url(#linearGradientF8FBFEEDF5FCDEEDFAD4E7F8E2E5E9_1535902787);" stroke="191970" /></g><g componentSequence="45"><text x="493" y="596" text-anchor="middle" style="font-weight:bold;font-size:10px;stroke:none; fill:#333399"><tspan dy="14" x="493">reprovar</tspan></text></g><g sequence="47"><ellipse cx="687" cy="607" rx="17" ry="17" stroke-width="3" style="fill:url(#linearGradientFF6666FF9696FFB6B6_13900738);" stroke="993333" /></g><g componentSequence="16"><text x="660" y="179" style="font-size:10px;font-weight:none;stroke:none; fill:#333399" text-anchor="left" /></g><g componentSequence="17"><text x="660" y="219" style="font-size:10px;font-weight:none;stroke:none; fill:#333399" text-anchor="left" /></g><g componentSequence="18"><text x="202" y="198" style="font-size:10px;font-weight:none;stroke:none; fill:#333399" text-anchor="left" /></g><g componentSequence="21"><text x="338" y="196" style="font-size:10px;font-weight:none;stroke:none; fill:#333399" text-anchor="left" /></g><g componentSequence="27"><text x="493" y="197" style="font-size:10px;font-weight:none;stroke:none; fill:#333399" text-anchor="left" /></g><g componentSequence="29"><text x="908" y="162" style="font-size:10px;font-weight:none;stroke:none; fill:#333399" text-anchor="left" /></g><g componentSequence="32"><text x="272" y="358" style="font-size:10px;font-weight:none;stroke:none; fill:#333399" text-anchor="left" /></g><g componentSequence="33"><text x="461" y="272" style="font-size:10px;font-weight:none;stroke:none; fill:#333399" text-anchor="left" /></g><g componentSequence="35"><text x="903" y="240" style="font-size:10px;font-weight:none;stroke:none; fill:#333399" text-anchor="left" /></g><g componentSequence="38"><text x="277" y="509" style="font-size:10px;font-weight:none;stroke:none; fill:#333399" text-anchor="left" /></g><g componentSequence="40"><text x="425" y="597" style="font-size:10px;font-weight:none;stroke:none; fill:#333399" text-anchor="left" /></g><g componentSequence="42"><text x="428" y="487" style="font-size:10px;font-weight:none;stroke:none; fill:#333399" text-anchor="left" /></g><g componentSequence="44"><text x="428" y="527" style="font-size:10px;font-weight:none;stroke:none; fill:#333399" text-anchor="left" /></g><g componentSequence="46"><text x="428" y="562" style="font-size:10px;font-weight:none;stroke:none; fill:#333399" text-anchor="left" /></g><g componentSequence="48"><text x="618" y="607" style="font-size:10px;font-weight:none;stroke:none; fill:#333399" text-anchor="left" /></g><g componentSequence="49"><text x="618" y="578" style="font-size:10px;font-weight:none;stroke:none; fill:#333399" text-anchor="left" /></g><g componentSequence="50"><text x="618" y="638" style="font-size:10px;font-weight:none;stroke:none; fill:#333399" text-anchor="left" /></g><g componentSequence="51"><text x="643" y="353" style="font-size:10px;font-weight:none;stroke:none; fill:#333399" text-anchor="left" /></g><path style="fill:none; stroke:#000000;stroke-width:1" d="M456.0 194.0 L508.0 198.0" /><polygon style="fill:#000000; stroke:#000000;" points=" 498 192 508 198 498 202 500 197" /><path style="fill:none; stroke:#000000;stroke-width:1" d="M306.0 196.0 L348.0 194.0" /><polygon style="fill:#000000; stroke:#000000;" points=" 338 189 348 194 338 199 340 194" /><path style="fill:none; stroke:#000000;stroke-width:1" d="M570.0 194.0 L728.0 164.0" /><polygon style="fill:#000000; stroke:#000000;" points=" 717 161 728 164 719 171 720 165" /><path style="fill:none; stroke:#000000;stroke-width:1" d="M570.0 204.0 L728.0 232.0" /><polygon style="fill:#000000; stroke:#000000;" points=" 719 225 728 232 717 235 720 231" /><path style="fill:none; stroke:#000000;stroke-width:1" d="M392.0 318.0 L508.0 224.0" /><polygon style="fill:#000000; stroke:#000000;" points=" 497 226 508 224 503 234 502 229" /><path style="fill:none; stroke:#000000;stroke-width:1" d="M186.0 198.0 L198.0 198.0" /><polygon style="fill:#000000; stroke:#000000;" points=" 188 193 198 198 188 203 190 198" /><path style="fill:none; stroke:#000000;stroke-width:1" d="M836.0 158.0 L958.0 166.0" /><polygon style="fill:#000000; stroke:#000000;" points=" 948 160 958 166 948 170 950 165" /><path style="fill:none; stroke:#000000;stroke-width:1" d="M836.0 240.0 L948.0 236.0" /><polygon style="fill:#000000; stroke:#000000;" points=" 938 231 948 236 938 241 940 236" /><path style="fill:none; stroke:#000000;stroke-width:1" d="M530.0 428.0 L734.0 278.0" /><polygon style="fill:#000000; stroke:#000000;" points=" 723 280 734 278 729 288 728 283" /><path style="fill:none; stroke:#000000;stroke-width:1" d="M234.0 356.0 L288.0 358.0" /><polygon style="fill:#000000; stroke:#000000;" points=" 278 353 288 358 278 363 280 358" /><path style="fill:none; stroke:#000000;stroke-width:1" d="M244.0 504.0 L288.0 510.0" /><polygon style="fill:#000000; stroke:#000000;" points=" 279 504 288 510 277 514 280 509" /><path style="fill:none; stroke:#000000;stroke-width:1" d="M368.0 544.0 L460.0 648.0" /><polygon style="fill:#000000; stroke:#000000;" points=" 457 637 460 648 450 644 455 642" /><path style="fill:none; stroke:#000000;stroke-width:1" d="M396.0 494.0 L438.0 478.0" /><polygon style="fill:#000000; stroke:#000000;" points=" 427 477 438 478 430 486 431 481" /><path style="fill:none; stroke:#000000;stroke-width:1" d="M396.0 524.0 L438.0 528.0" /><polygon style="fill:#000000; stroke:#000000;" points=" 429 522 438 528 428 532 430 527" /><path style="fill:none; stroke:#000000;stroke-width:1" d="M388.0 544.0 L446.0 578.0" /><polygon style="fill:#000000; stroke:#000000;" points=" 440 569 446 578 435 577 439 574" /><path style="fill:none; stroke:#000000;stroke-width:1" d="M546.0 662.0 L670.0 612.0" /><polygon style="fill:#000000; stroke:#000000;" points=" 659 611 670 612 663 620 663 615" /><path style="fill:none; stroke:#000000;stroke-width:1" d="M546.0 556.0 L670.0 600.0" /><polygon style="fill:#000000; stroke:#000000;" points=" 662 592 670 600 659 601 662 597" /><path style="fill:none; stroke:#000000;stroke-width:1" d="M546.0 606.0 L668.0 606.0" /><polygon style="fill:#000000; stroke:#000000;" points=" 658 601 668 606 658 611 660 606" /><defs><linearGradient xmlns:xlink="http://www.w3.org/1999/xlink" xlink:href="#linearGradientF8FBFEEDF5FCDEEDFAD4E7F8E2E5E9" id="linearGradientF8FBFEEDF5FCDEEDFAD4E7F8E2E5E9_1843171814" x1="0" y1="160.0" x2="0" y2="266.0" gradientUnits="userSpaceOnUse" xlink:type="simple" xlink:actuate="onLoad" xlink:show="other" /><linearGradient id="linearGradientF8FBFEEDF5FCDEEDFAD4E7F8E2E5E9"><stop style="stop-color:#F8FBFE;stop-opacity:1;" offset="0.0" id="stopF8FBFE" /><stop style="stop-color:#EDF5FC;stop-opacity:1;" offset="0.25" id="stopEDF5FC" /><stop style="stop-color:#DEEDFA;stop-opacity:1;" offset="0.5" id="stopDEEDFA" /><stop style="stop-color:#D4E7F8;stop-opacity:1;" offset="0.75" id="stopD4E7F8" /><stop style="stop-color:#E2E5E9;stop-opacity:1;" offset="1.0" id="stopE2E5E9" /></linearGradient><linearGradient xmlns:xlink="http://www.w3.org/1999/xlink" xlink:href="#linearGradientFAFBFCFFFFCC" id="linearGradientFAFBFCFFFFCC_1662738989" x1="0" y1="150.0" x2="0" y2="210.0" gradientUnits="userSpaceOnUse" xlink:type="simple" xlink:actuate="onLoad" xlink:show="other" /><linearGradient id="linearGradientFAFBFCFFFFCC"><stop style="stop-color:#FAFBFC;stop-opacity:1;" offset="0.0" id="stopFAFBFC" /><stop style="stop-color:#FFFFCC;stop-opacity:1;" offset="1.0" id="stopFFFFCC" /></linearGradient><linearGradient xmlns:xlink="http://www.w3.org/1999/xlink" xlink:href="#linearGradient66FF6696FF96B6FFB6" id="linearGradient66FF6696FF96B6FFB6_1730476694" x1="0" y1="181.0" x2="0" y2="216.0" gradientUnits="userSpaceOnUse" xlink:type="simple" xlink:actuate="onLoad" xlink:show="other" /><linearGradient id="linearGradient66FF6696FF96B6FFB6"><stop style="stop-color:#66FF66;stop-opacity:1;" offset="0.0" id="stop66FF66" /><stop style="stop-color:#96FF96;stop-opacity:1;" offset="0.5" id="stop96FF96" /><stop style="stop-color:#B6FFB6;stop-opacity:1;" offset="1.0" id="stopB6FFB6" /></linearGradient><linearGradient xmlns:xlink="http://www.w3.org/1999/xlink" xlink:href="#linearGradientF8FBFEEDF5FCDEEDFAD4E7F8E2E5E9" id="linearGradientF8FBFEEDF5FCDEEDFAD4E7F8E2E5E9_572942358" x1="0" y1="122.0" x2="0" y2="228.0" gradientUnits="userSpaceOnUse" xlink:type="simple" xlink:actuate="onLoad" xlink:show="other" /><linearGradient xmlns:xlink="http://www.w3.org/1999/xlink" xlink:href="#linearGradientF8FBFEEDF5FCDEEDFAD4E7F8E2E5E9" id="linearGradientF8FBFEEDF5FCDEEDFAD4E7F8E2E5E9_737971733" x1="0" y1="210.0" x2="0" y2="316.0" gradientUnits="userSpaceOnUse" xlink:type="simple" xlink:actuate="onLoad" xlink:show="other" /><linearGradient xmlns:xlink="http://www.w3.org/1999/xlink" xlink:href="#linearGradientF8FBFEEDF5FCDEEDFAD4E7F8E2E5E9" id="linearGradientF8FBFEEDF5FCDEEDFAD4E7F8E2E5E9_332303181" x1="0" y1="159.0" x2="0" y2="265.0" gradientUnits="userSpaceOnUse" xlink:type="simple" xlink:actuate="onLoad" xlink:show="other" /><linearGradient xmlns:xlink="http://www.w3.org/1999/xlink" xlink:href="#linearGradientFFFF66FFFF96FFFFB6" id="linearGradientFFFF66FFFF96FFFFB6_1409168360" x1="0" y1="150.0" x2="0" y2="185.0" gradientUnits="userSpaceOnUse" xlink:type="simple" xlink:actuate="onLoad" xlink:show="other" /><linearGradient id="linearGradientFFFF66FFFF96FFFFB6"><stop style="stop-color:#FFFF66;stop-opacity:1;" offset="0.0" id="stopFFFF66" /><stop style="stop-color:#FFFF96;stop-opacity:1;" offset="0.5" id="stopFFFF96" /><stop style="stop-color:#FFFFB6;stop-opacity:1;" offset="1.0" id="stopFFFFB6" /></linearGradient><linearGradient xmlns:xlink="http://www.w3.org/1999/xlink" xlink:href="#linearGradientFFFF66FFFF96FFFFB6" id="linearGradientFFFF66FFFF96FFFFB6_1107924825" x1="0" y1="340.0" x2="0" y2="375.0" gradientUnits="userSpaceOnUse" xlink:type="simple" xlink:actuate="onLoad" xlink:show="other" /><linearGradient xmlns:xlink="http://www.w3.org/1999/xlink" xlink:href="#linearGradientF8FBFEEDF5FCDEEDFAD4E7F8E2E5E9" id="linearGradientF8FBFEEDF5FCDEEDFAD4E7F8E2E5E9_222967083" x1="0" y1="320.0" x2="0" y2="426.0" gradientUnits="userSpaceOnUse" xlink:type="simple" xlink:actuate="onLoad" xlink:show="other" /><linearGradient xmlns:xlink="http://www.w3.org/1999/xlink" xlink:href="#linearGradientFFFF66FFFF96FFFFB6" id="linearGradientFFFF66FFFF96FFFFB6_1790530348" x1="0" y1="220.0" x2="0" y2="255.0" gradientUnits="userSpaceOnUse" xlink:type="simple" xlink:actuate="onLoad" xlink:show="other" /><linearGradient xmlns:xlink="http://www.w3.org/1999/xlink" xlink:href="#linearGradientFFFF66FFFF96FFFFB6" id="linearGradientFFFF66FFFF96FFFFB6_1224367328" x1="0" y1="488.0" x2="0" y2="523.0" gradientUnits="userSpaceOnUse" xlink:type="simple" xlink:actuate="onLoad" xlink:show="other" /><linearGradient xmlns:xlink="http://www.w3.org/1999/xlink" xlink:href="#linearGradientF8FBFEEDF5FCDEEDFAD4E7F8E2E5E9" id="linearGradientF8FBFEEDF5FCDEEDFAD4E7F8E2E5E9_1179101689" x1="0" y1="490.0" x2="0" y2="596.0" gradientUnits="userSpaceOnUse" xlink:type="simple" xlink:actuate="onLoad" xlink:show="other" /><linearGradient xmlns:xlink="http://www.w3.org/1999/xlink" xlink:href="#linearGradientF8FBFEEDF5FCDEEDFAD4E7F8E2E5E9" id="linearGradientF8FBFEEDF5FCDEEDFAD4E7F8E2E5E9_444088183" x1="0" y1="650.0" x2="0" y2="756.0" gradientUnits="userSpaceOnUse" xlink:type="simple" xlink:actuate="onLoad" xlink:show="other" /><linearGradient xmlns:xlink="http://www.w3.org/1999/xlink" xlink:href="#linearGradientF8FBFEEDF5FCDEEDFAD4E7F8E2E5E9" id="linearGradientF8FBFEEDF5FCDEEDFAD4E7F8E2E5E9_980954919" x1="0" y1="430.0" x2="0" y2="536.0" gradientUnits="userSpaceOnUse" xlink:type="simple" xlink:actuate="onLoad" xlink:show="other" /><linearGradient xmlns:xlink="http://www.w3.org/1999/xlink" xlink:href="#linearGradientF8FBFEEDF5FCDEEDFAD4E7F8E2E5E9" id="linearGradientF8FBFEEDF5FCDEEDFAD4E7F8E2E5E9_545221076" x1="0" y1="510.0" x2="0" y2="616.0" gradientUnits="userSpaceOnUse" xlink:type="simple" xlink:actuate="onLoad" xlink:show="other" /><linearGradient xmlns:xlink="http://www.w3.org/1999/xlink" xlink:href="#linearGradientF8FBFEEDF5FCDEEDFAD4E7F8E2E5E9" id="linearGradientF8FBFEEDF5FCDEEDFAD4E7F8E2E5E9_1535902787" x1="0" y1="580.0" x2="0" y2="686.0" gradientUnits="userSpaceOnUse" xlink:type="simple" xlink:actuate="onLoad" xlink:show="other" /><linearGradient xmlns:xlink="http://www.w3.org/1999/xlink" xlink:href="#linearGradientFF6666FF9696FFB6B6" id="linearGradientFF6666FF9696FFB6B6_13900738" x1="0" y1="590.0" x2="0" y2="625.0" gradientUnits="userSpaceOnUse" xlink:type="simple" xlink:actuate="onLoad" xlink:show="other" /><linearGradient id="linearGradientFF6666FF9696FFB6B6"><stop style="stop-color:#FF6666;stop-opacity:1;" offset="0.0" id="stopFF6666" /><stop style="stop-color:#FF9696;stop-opacity:1;" offset="0.5" id="stopFF9696" /><stop style="stop-color:#FFB6B6;stop-opacity:1;" offset="1.0" id="stopFFB6B6" /></linearGradient></defs></svg>
